<svg id="Camada_19" data-name="Camada 19" xmlns="http://www.w3.org/2000/svg" viewBox="0 0 1921.29 370"><defs><style>.cls-1{fill:#7067cf;}.cls-2{fill:none;stroke:#fff;stroke-linecap:round;stroke-miterlimit:10;stroke-width:3px;}</style></defs><path class="cls-1" d="M1905.05,767a54.27,54.27,0,0,0,2-22c-1-8.06-3.41-12.06-4-13a26.19,26.19,0,0,0-8-8" transform="translate(0.45 -709.53)"/><circle class="cls-1" cx="1889" cy="11" r="0.5"/><path class="cls-1" d="M109.6,768.79c1.34-2.64,6.64-13.85,2.45-26.76a33.78,33.78,0,0,0-8.18-13.29" transform="translate(0.45 -709.53)"/><ellipse class="cls-1" cx="98.31" cy="12.5" rx="0.81" ry="1"/><path class="cls-1" d="M-.45,773.34a16.4,16.4,0,0,1,6-3.94c8.06-3.1,16.24.46,17,.79a19.18,19.18,0,0,1,9,8.66c10.39,19.62-9.09,56.29,4,64.54,6,3.8,19.23,1.59,26-3.93,12-9.78,4.53-31.46-6-62.19-.23-.68-.6-1.74-1-3.15-1.09-3.47-5-15.79-4.89-27.22.08-11.11.15-21.65,9.94-29.45,11-8.76,26.64-8,28-7.87,18.84,1.2,31.16,14.37,34.68,24.23,1.18,3.31,1.69,6.4,1.86,12,.84,28-5.78,37.57-8.54,61.38,0,0-5.08,44.75,14.81,76.86.4.64.8,1.27,1.19,1.86.18.27.36.55.55.82l.1.16.35.59a26.74,26.74,0,0,0,2.24,3.08l0,.05c2.48,3,6.83,7,12.72,7.89a47.35,47.35,0,0,0,10.72,0c17.53-5.86,36.48-7.33,56.28-6.32,36.45,1.87,47.89,11.14,100,22.83,48.19,10.81,72.28,16.21,100,10.23,26.63-5.75,31.61-16.54,68-23.61,14-2.73,31.56-6.14,54-3.94,5.12.5,12.42,1.49,86,20.47l1.49.38s36.23,9.23,75.51,8.28c59.5-1.45,79.64-40.17,136-34.64,29.6,2.91,63.54,17.47,69.77,20.14,16.37,7,25.55,12.69,46.23,19.22,14.46,4.56,27.5,8.69,46,9.44,4.25.18,8.53.21,13.19,0,28.52-1.55,55.25-12.36,75.81-19.63,23.25-8.23,50.36-17.83,86-21.26a340.12,340.12,0,0,1,50-.78c20.36,1,35.33,3.25,63,7.87,23.57,3.93,26.42,5,53.71,9.45,25,4.11,37.52,6.16,46.29,6.93,44,3.82,82.92-4.52,147.82-18.42l6.77-1.47c6.06-1.36,9.23-2.18,19.41-4.36,69.07-14.8,142-11.81,142-11.81,59.62,2.47,87,5.51,87,5.51,16.9,1.88,29.55,3.78,42-1.57,12.94-5.57,21.36-17.15,27-39.36,15.23-60.06-11.78-108.82,9-129.87a35.15,35.15,0,0,1,20-10.24c3.24-.3,11.37-.49,18,4.59,7.8,6,9,15.75,10,24,2.29,18.79-3.14,37.67-4,50.91-.16,2.45-.22,4.86-.22,4.86-.08,3.92.08,7.31.28,11.19a346,346,0,0,0,3.43,35.09c3,22.68,5.49,34.57,5.51,44.1v15c0,1.83,0,3.67,0,5.51s0,3.67,0,5.51v16.19c.43,2.93.78,6,1,9.2a120.34,120.34,0,0,1-1,25.77v0c0,.11,0,.63,0,13.36v102.33H-.45Z" transform="translate(0.45 -709.53)"/><path class="cls-2" d="M115.32,765.79a43.66,43.66,0,0,0-9.16-40" transform="translate(0.45 -709.53)"/><circle class="cls-2" cx="97" cy="11" r="0.5"/><path class="cls-2" d="M1907.05,761c1.08-2.87,5.15-14.67-.32-27.37a35.47,35.47,0,0,0-10.36-13.51" transform="translate(0.45 -709.53)"/><circle class="cls-2" cx="1889" cy="8" r="0.5"/></svg>