<svg xmlns="http://www.w3.org/2000/svg" viewBox="0 0 641.78 571.53"><defs><style>.cls-1,.cls-2{fill:none;stroke:#f2f2f2;stroke-linecap:round;stroke-linejoin:round;opacity:0.7;}.cls-1,.cls-5{stroke-width:3px;}.cls-2,.cls-4{stroke-width:4px;}.cls-3{fill:#de5959;stroke-width:8px;}.cls-3,.cls-4{stroke:#212121;}.cls-3,.cls-4,.cls-5{stroke-miterlimit:10;}.cls-4{fill:#e01d1d;opacity:0.21;}.cls-5{fill:#8f51dc;stroke:#000;}</style></defs><g id="Camada_3" data-name="Camada 3"><path class="cls-1" d="M734.4,725a49.48,49.48,0,0,0,1.83,8.16,54.25,54.25,0,0,0,3.79,9" transform="translate(-731.71 -254)"/><path class="cls-2" d="M733.71,720v.1" transform="translate(-731.71 -254)"/><path class="cls-3" d="M1368.52,603.62a199.93,199.93,0,0,1-7.74,40.58q-2.13,6.93-4.81,13.5C1305.26,783,1116.06,811.88,1082.13,817.07a385.44,385.44,0,0,1-44.92,4.19,407.38,407.38,0,0,1-104.71-9.73c-26.89-6.12-54.66-12.71-86-33.75,0,0-4.83-3.25-12.24-9.22a280.78,280.78,0,0,1-27.55-25.5,217.91,217.91,0,0,1-29.88-39.37S773,697,769.7,690C753.26,655,750.34,608.32,750.21,606c-4.12-73.3,23.71-142.6,32.19-162.31h0c6.3-17.93,27.14-58.92,60.12-96.41,9.68-11,18.88-19.76,21.27-22,3.42-3.24,9.49-8.78,17.86-15.66l.49-.39a244.56,244.56,0,0,1,54.11-33.17,216,216,0,0,1,23.17-8.71c8.31-2.58,15-4.1,18.22-4.8a202,202,0,0,1,42.72-4.55,210.57,210.57,0,0,1,28.61,2.16c2.27.32,11.33,1.66,22.84,4.5.86.21,4.41,1.09,9.07,2.41,6.56,1.86,13,3.95,19.35,6.2,0,0,3.71,1.3,7.38,2.67,63.16,23.6,105.24,51.28,105.24,51.28a447.14,447.14,0,0,1,74.57,61.89c16.71,16.9,25.4,28.25,30.33,35.08a320.1,320.1,0,0,1,27.44,47.41,274.34,274.34,0,0,1,13.11,33.72A245.89,245.89,0,0,1,1369,564.5,265.43,265.43,0,0,1,1368.52,603.62Z" transform="translate(-731.71 -254)"/><path class="cls-4" d="M1308.24,568.21a202.62,202.62,0,0,0-8.79-48.76,226.38,226.38,0,0,0-10.8-27.78,263.6,263.6,0,0,0-22.59-39.06c-4.06-5.63-11.22-15-25-28.9a368.58,368.58,0,0,0-61.41-51S1145,349.91,1093,330.46c-3-1.13-6.07-2.2-6.07-2.2-5.23-1.85-10.54-3.57-15.94-5.11-3.84-1.09-6.77-1.81-7.47-2-9.48-2.34-16.94-3.44-18.81-3.71a172.4,172.4,0,0,0-23.56-1.78A166,166,0,0,0,986,319.43c-2.69.58-8.16,1.83-15,4a178.21,178.21,0,0,0-19.08,7.17,201.73,201.73,0,0,0-44.57,27.33l-.4.32c-6.89,5.67-11.88,10.23-14.71,12.91-2,1.86-9.54,9.07-17.51,18.14a303.28,303.28,0,0,0-33,45.76c-8.33,14.16-13.92,26.3-16.52,33.68-7,16.24-29.9,73.33-26.5,133.73.1,1.88,2.51,40.37,16.05,69.15,2.73,5.81,5.88,11.31,5.88,11.31a179.66,179.66,0,0,0,24.6,32.44,231.44,231.44,0,0,0,22.7,21c6.1,4.92,10.07,7.59,10.07,7.59,25.81,17.34,48.67,22.77,70.82,27.81a334.77,334.77,0,0,0,86.23,8,316,316,0,0,0,37-3.46c25.55-3.9,158-24.15,212.43-106.49a140.32,140.32,0,0,0,12.42-23.2c.23-.53.45-1.07.67-1.61q2.21-5.4,4-11.12.84-2.75,1.56-5.47.85-3.21,1.53-6.37a173,173,0,0,0,3.28-21.6A217.72,217.72,0,0,0,1308.24,568.21Zm-158.08,29.61c5.13-7.77,28.41-1.39,29,4.6s-22.51,12.82-24.39,13.35C1154.41,615.28,1146.27,603.7,1150.16,597.82Z" transform="translate(-731.71 -254)"/></g><g id="Camada_2" data-name="Camada 2"><path class="cls-5" d="M873.44,426.89C854.12,411,826.51,412.7,811.07,429c-16.31,17.22-14,45.3-1.28,58.56,7.86,8.21,18.84,9.87,29.28,11.46,24.49,3.71,32.82-5.88,47.1.85,10,4.71,19.38,15.75,19.1,26.73-.46,18.25-27.49,35-49.65,33.95-16.53-.76-24.75-11.13-34.37-5.94-7.62,4.1-12.21,15.87-8.91,23.33,6,13.56,38.43,13.94,61.1,7.22,4.43-1.31,53.44-16.63,58.56-56.86.36-2.82,3.47-30.11-12.73-42.86-15.76-12.4-33.61,1.69-63.22-11.88-3.61-1.66-24.19-11.09-22.92-20.8,1-7.34,14.4-14.36,23.34-11.45,6.18,2,7,7.71,14.43,9.33,4.4,1,10.57.37,12.73-3C886.37,443.45,882.88,434.47,873.44,426.89Z" transform="translate(-731.71 -254)"/></g><g id="Camada_1" data-name="Camada 1"><path class="cls-5" d="M904.43,422.49c-4.13,6,1.37,14.47,6.9,28.07,12.26,30.16,16.09,64.45,19.79,97.56,1.34,12.06,1.22,15.48,4.6,19.33,17.48,19.92,83.67-.25,85.59-20.25.65-6.75-5.83-15.55-12.42-16.57-4.24-.65-6.81,2.19-12.89,5.53-8.29,4.55-23.31,10.15-30.83,6.44-8-3.94-7-18.11-7.82-36.36-1.25-26.27-3.6-75.68-26.23-87C921.76,414.6,908.66,416.31,904.43,422.49Z" transform="translate(-731.71 -254)"/><path class="cls-5" d="M1018.09,561c-11.24-7.94-3.56-24.58-7.36-54.77-.31-2.44-7.54-56.93-27.61-74.09-1.53-1.3-6.46-5.23-6.91-11s3.82-12.9,8.29-13.8c10.5-2.13,25,28.79,29.91,39.11,20.3,43.15,36.38,107.64,18.87,116.89C1028.32,565.92,1021.72,563.57,1018.09,561Z" transform="translate(-731.71 -254)"/><path class="cls-5" d="M982.79,569.23c.25-.08,6-1.87,9.92,1.65a7.09,7.09,0,0,1,2.2,7.6c-1.66,4.41-7.68,4.93-8.08,5-4.4.31-10.1-2.07-10.65-6.28C975.71,573.49,979.39,570.33,982.79,569.23Z" transform="translate(-731.71 -254)"/><path class="cls-5" d="M1061.35,550c-.38,1.19-2.72,8.69-9.67,11-6.47,2.2-13.44-1.27-17-5.53-4.47-5.3-3.94-12.13-3.69-17.94.77-17.5-2.27-35-2.76-52.46-.6-21.81-1-25,0-33.6,1.8-14.69,3.54-27.41,12.89-32.21,6.13-3.15,14.47-2.35,20.25,1.38,4.8,3.1,6.83,7.58,8.74,12,5,11.53,1.24,16.32,5.52,28.08,2,5.55,7.12,16.13,12,15.64,5.76-.57,8.43-16.48,8.74-18.41,1.49-9.25-.7-11.76,0-24.84.55-10.25.89-15.44,4.6-18.87,5-4.61,14.06-5.29,19.33-1.38,3.31,2.46,4.37,6.17,5.06,8.74,4.42,16.39,6.63,24.59,7.82,31.75,1.93,11.55,4.32,23,6.45,34.52,2,10.54,2.53,13.65,3.22,18.86,3.36,25.33,0,29.44-1.38,30.84-4,4.05-11.32,5.37-16.11,2.76s-6.18-8.81-7.36-18.41c-3.2-26.07-1.08-43.57-3.68-44.18-3.22-.74-6.84,25.79-21.63,29.45-7.79,1.93-15.23-3.33-17-4.6-15.19-10.73-14-33.8-17-33.59-2.49.17-4,15.46-3.69,29,.29,12.5.47,20.35,3.23,30.83C1060.66,538.44,1063.49,543.11,1061.35,550Z" transform="translate(-731.71 -254)"/><path class="cls-5" d="M1205.38,416.05c1.67-5.5-.5-11.68-3.68-15.19-11.13-12.25-47-5.25-62.58,12.89-27.92,32.5-1.55,113.51,40.49,124.71,19.66,5.23,47.81-3.45,53.38-18.87,2.53-7,1.14-17.31-4.14-20.25-4.37-2.44-9.23,1.41-16.56,3.68-20.82,6.44-44.45-5.18-44.18-10.12s25.2-2.19,30.83-15.19c2.82-6.51.45-16.22-5.06-19.32-9.17-5.18-22.33,10.56-30.37,5.52-4.74-3-6.48-12.37-3.69-19.33C1166.94,426.86,1200.46,432.26,1205.38,416.05Z" transform="translate(-731.71 -254)"/><path class="cls-5" d="M1247.07,403.83c-16.44-8.71-36.27-3.32-45.08,10.85-9.3,15-3.4,35.05,7.81,42.81,6.94,4.8,15.18,4.37,23,4,18.37-.95,23-9.17,34.4-6.41,8,1.94,16.45,8.57,17.89,16.61,2.39,13.35-14.79,29.54-31.07,32.11-12.14,1.91-19.67-4.41-25.9.8-4.93,4.13-6.52,13.37-3,18.32,6.39,9,30,4.41,45.55-3.87,3-1.61,36.41-20.07,34.14-50.11-.15-1.9-1.91-21.81-15.66-29.3-10.93-5.94-18.93,1.67-43.16-1.61-7.53-1-23.43-3.17-24.41-9.32-.78-4.95,8.13-12.62,15.28-11.82,4.79.55,6.26,4.57,11.89,4.65,3.35,0,7.75-1.32,8.82-4.06C1259,414,1255.07,408,1247.07,403.83Z" transform="translate(-731.71 -254)"/><path class="cls-5" d="M798.58,607.7c.26-4.79,1.07-11.15,5.88-15.37A15.67,15.67,0,0,1,818,588.71c7.09,1.76,10.46,9.26,14,17.18a63.21,63.21,0,0,1,4.06,12.2c8.54,38.6,14.18,48.42,20.34,54.69,4.09,4.16,7.35,5.67,10.4,5.42,6.38-.52,10.43-8.64,11.3-10.39,12.42-25-32.1-63.85-19-85.88.46-.78,5.24-8.58,11.75-8.58,5.42,0,9.52,5.43,11.75,8.58,23.82,33.76,40.72,57.71,32.54,88.59-1.53,5.77-5.71,20.73-19.43,32.09S860,720.78,842,712.55c-10.11-4.61-14.72-12.11-24-27.11C818,685.44,796.25,650.07,798.58,607.7Z" transform="translate(-731.71 -254)"/><path class="cls-5" d="M913.94,700.31c-9.59-6.16-1.54-21.69-3.82-58.52-1.41-22.95-5.63-34.71,2.26-42.15,3.89-3.67,10.31-5.89,15.35-4.07,6.23,2.26,7.26,9.56,12.83,23.45,4.12,10.3,13.43,30.94,17.18,30,3.24-.78,2.31-17.58,1.27-26.83-2.43-21.61-8.57-29.76-3.56-36.09,3.73-4.71,11.95-6.25,16.39-3.32,5.81,3.83,4.2,14.66,3.69,23.67-2.59,45.06,20.7,70,8.23,81.15a14.91,14.91,0,0,1-13.2,3.23c-6.73-1.9-8.38-9.61-13.9-19.13-8-13.88-21.36-26.44-25.39-24.47-6.32,3.1,13.5,40.29.35,51.79C927,703.05,919,703.53,913.94,700.31Z" transform="translate(-731.71 -254)"/><path class="cls-5" d="M998.8,693c-5.68-5.61-1.24-16.75-2.46-37.32-.1-1.66-2.51-38.79-12.59-50.83a12.35,12.35,0,0,1-3.33-7.63c-.09-4,2.33-8.68,4.69-9.21,5.55-1.23,12.39,20,14.67,27.14,9.54,29.69,16.32,73.77,6.92,79.71C1004,696.51,1000.64,694.78,998.8,693Z" transform="translate(-731.71 -254)"/><path class="cls-5" d="M998.14,610.15c-1.25-2.61-3.68-7.86-1.48-10.37,1.87-2.13,6.68-1.79,9.89,0a12.47,12.47,0,0,1,5.33,6.34c1.22,3,25.11,60.66,33.63,59.8,5.43-.55,7.82-25.18,8.34-30.52,1.1-11.32,1.13-26.63,7.37-40.48,1.31-2.91,3.37-6.82,6.38-7,3.76-.26,6.79,5.38,7.2,6.15,3.6,6.69,1.86,14,1.17,16.8-3.29,13.09-4.63,19.71-6.92,24.46-15.12,31.37-9.26,57.73-19.69,60.4C1039.47,698.19,1026.09,668.65,998.14,610.15Z" transform="translate(-731.71 -254)"/><path class="cls-5" d="M1121.22,602.58a13.53,13.53,0,0,0-2.49-11.42c-7.53-9.21-31.8-3.94-42.33,9.69-18.89,24.44-1.05,85.34,27.39,93.76,13.3,3.93,32.34-2.59,36.11-14.19,1.71-5.24.77-13-2.8-15.22-3-1.83-6.25,1.06-11.21,2.77-14.08,4.84-30.06-3.89-29.88-7.61s17-1.65,20.86-11.42c1.9-4.9.3-12.19-3.43-14.53-6.2-3.89-15.1,7.94-20.54,4.15-3.21-2.23-4.39-9.29-2.5-14.53C1095.22,610.71,1117.89,614.77,1121.22,602.58Z" transform="translate(-731.71 -254)"/><path class="cls-5" d="M1175,638.32c-3.86-1-7.86-.64-8.28-2.31-.78-3.07,12.44-5.78,20.71-15.18.52-.6,1-1.22,1.52-1.87,7.19-9.64,10-24.77,5-34.46a16.77,16.77,0,0,0-1.44-2.33c-10.87-14.79-45.44-11.34-57.06,4.61-9.63,13.19,4.65,23.73,2.3,66.26-.24,4.32-.62,8.33-.94,12-.76,8.58-1.23,15.25,1,19.48a8.41,8.41,0,0,0,2.68,3c4.75,3.3,13.2,2.19,17.48-2.3,9-9.41-3.79-30.15,1.38-33.13,4.27-2.46,19.43,7.92,22.09,21.17,1.13,5.61-.3,10.18,2.76,12.42s9.44,1.2,12.43-2.3C1204.65,674,1192.25,642.79,1175,638.32Zm-20.25-22.55c-.35-.49-8.49-12.07-4.6-17.95,5.13-7.77,28.41-1.39,29,4.6S1156.64,615.24,1154.76,615.77Z" transform="translate(-731.71 -254)"/><path class="cls-5" d="M1228.26,583c-12.85-8.47-29.61-5.6-38,5.37-8.83,11.58-5.57,28.59,3,35.86,4.7,4,10.48,4.42,18.64,5.09,14.12,1.15,17.79-3.16,27-.31.71.22,13.91,4.45,15.21,12.84,1.53,9.85-13.74,23.11-28.12,24-10.15.62-15.85-5.18-21.38-1.39-4.39,3-6.43,10.5-3.92,14.85,4.54,7.88,24.38,6,37.8.41,2.62-1.09,31.56-13.64,32.07-38.56,0-1.74.15-18.62-10.58-25.36-10.44-6.54-20.43,3.23-39.41-3.13-2.31-.77-15.5-5.19-15.35-11.2.11-4.55,7.85-9.72,13.51-8.53,3.9.83,4.79,4.26,9.42,4.76,2.76.31,6.48-.46,7.59-2.64C1237.24,592.26,1234.51,587,1228.26,583Z" transform="translate(-731.71 -254)"/><path class="cls-5" d="M1308.14,580.57a13.53,13.53,0,0,0-2.49-11.41c-7.53-9.22-31.8-3.95-42.34,9.68-18.88,24.44-1,85.35,27.4,93.76,13.29,3.94,32.34-2.59,36.11-14.18,1.71-5.25.76-13-2.8-15.22-3-1.84-6.25,1.06-11.21,2.76-14.08,4.84-30.06-3.89-29.89-7.61s17-1.64,20.86-11.42c1.91-4.9.31-12.19-3.42-14.53-6.21-3.89-15.1,8-20.55,4.15-3.2-2.23-4.38-9.29-2.49-14.53C1282.13,588.7,1304.81,592.76,1308.14,580.57Z" transform="translate(-731.71 -254)"/><path class="cls-5" d="M970.38,374.23c.31-.11,7.58-2.67,12.47,2.37a11.09,11.09,0,0,1,2.77,10.92c-2.08,6.33-9.66,7.07-10.16,7.12-5.53.45-12.7-3-13.39-9C961.47,380.35,966.09,375.82,970.38,374.23Z" transform="translate(-731.71 -254)"/></g></svg>