<svg id="Camada_1" data-name="Camada 1" xmlns="http://www.w3.org/2000/svg" viewBox="0 0 1921.29 370"><defs><style>.cls-1{fill:none;stroke:#fff;stroke-linecap:round;stroke-miterlimit:10;stroke-width:3px;}.cls-2{fill:#7067cf;}</style></defs><path class="cls-1" d="M15.23,312.2a53.9,53.9,0,0,0-2,22c1,8.06,3.4,12.06,4,13a26.08,26.08,0,0,0,8,8" transform="translate(0.56 0.3)"/><circle class="cls-1" cx="32.29" cy="359" r="0.5"/><path class="cls-1" d="M1810.67,310.44c-1.34,2.64-6.64,13.85-2.44,26.76a33.67,33.67,0,0,0,8.17,13.29" transform="translate(0.56 0.3)"/><ellipse class="cls-1" cx="1822.97" cy="357.5" rx="0.81" ry="1"/><path class="cls-2" d="M1920.73,305.89a16.59,16.59,0,0,1-6,3.94c-8.07,3.09-16.24-.46-17-.79a19.13,19.13,0,0,1-9-8.66c-10.4-19.63,9.09-56.29-4-64.54-6-3.8-19.23-1.59-26,3.93-12,9.78-4.53,31.46,6,62.18.23.68.6,1.75,1,3.16,1.09,3.46,5,15.78,4.9,27.22-.08,11.11-.16,21.65-9.94,29.45-11,8.76-26.65,8-28,7.87-18.84-1.2-31.16-14.37-34.68-24.23-1.19-3.32-1.7-6.4-1.86-12-.84-28,5.78-37.56,8.54-61.38,0,0,5.08-44.74-14.81-76.85-.4-.64-.8-1.27-1.19-1.86-.18-.27-.36-.55-.55-.82l-.1-.16-.35-.59a26.74,26.74,0,0,0-2.24-3.08l0-.05c-2.48-3-6.83-7-12.72-7.89a47.35,47.35,0,0,0-10.72,0c-17.53,5.86-36.48,7.33-56.28,6.32-36.46-1.87-47.9-11.14-100-22.83-48.2-10.81-72.29-16.21-100-10.23-26.63,5.74-31.61,16.54-68,23.61-14,2.73-31.57,6.14-54,3.94-5.13-.51-12.42-1.49-86-20.47l-1.49-.38s-36.24-9.23-75.51-8.28c-59.51,1.45-79.64,40.17-136,34.64-29.61-2.91-63.54-17.47-69.77-20.14-16.38-7-25.56-12.69-46.23-19.22-14.46-4.56-27.5-8.69-46-9.45-4.25-.17-8.54-.21-13.19.05-28.53,1.54-55.26,12.36-75.81,19.63-23.25,8.23-50.37,17.83-86,21.25a339,339,0,0,1-50,.79c-20.37-1-35.33-3.25-63-7.87-23.57-3.93-26.42-5-53.72-9.45-25-4.11-37.52-6.16-46.28-6.93-44-3.82-82.93,4.52-147.82,18.42l-6.78,1.47c-6.05,1.35-9.23,2.18-19.4,4.36-69.08,14.8-142,11.81-142,11.81-59.62-2.47-87-5.51-87-5.51-16.91-1.88-29.56-3.78-42,1.57-13,5.57-21.37,17.15-27,39.36-15.24,60.05,11.78,108.82-9,129.87a35.18,35.18,0,0,1-20,10.24c-3.25.3-11.37.49-18-4.59-7.81-6-9-15.75-10-24-2.3-18.79,3.13-37.67,4-50.91.16-2.45.21-4.86.21-4.86.08-3.92-.08-7.31-.27-11.19a346,346,0,0,0-3.43-35.09C3.19,214,.75,202.08.73,192.55v-15c0-1.83,0-3.68,0-5.51s0-3.67,0-5.51V150.38c-.44-2.94-.78-6-1-9.21a119.6,119.6,0,0,1,1-25.76v0c0-.12,0-.63,0-13.36V-.3h1920Z" transform="translate(0.56 0.3)"/><path class="cls-1" d="M1805,313.44a43.74,43.74,0,0,0,9.16,40.05" transform="translate(0.56 0.3)"/><circle class="cls-1" cx="1824.29" cy="359" r="0.5"/><path class="cls-1" d="M13.23,318.2c-1.09,2.87-5.16,14.67.31,27.37a35.37,35.37,0,0,0,10.37,13.51" transform="translate(0.56 0.3)"/><circle class="cls-1" cx="32.29" cy="362" r="0.5"/></svg>